# xmcd
#
# Track frame offsets:
# 150
# 9750
# 21675
# 33507
# 45390
# 56375
# 68772
# 80565
# 93467
# 108020
# 122090
# 132247
# 143305
# 154522
# 166175
# 177470
# 187782
# 198745
#
# Disc length: 2792 seconds
#
#
# Revision: 2
# Processed by: cddbd v1.5.1PL0 Copyright (c) Steve Scherf et al.
# Submitted via: FreeRIP 2.941 
#
DISCID=df0ae612
DTITLE=Various Artist - All American Country
DYEAR=1900
DGENRE=
TTITLE0=Tillis and Sherry Bryce - Take My Hand
TTITLE1=Merle Haggard and Leona Williams - Heart To Heart Talk
TTITLE2=Hank Williams Jr and Lois Johnson - We Must Have Been Out Of Our Minds
TTITLE3=Jerry Lee Lewis and Linda Gail Lewis - Cryn' Time
TTITLE4=Roy Drusky and Priscilla Mitchell - Slippin' Around
TTITLE5=George Jones and Margie Singleton - Waltz Of The Angels
TTITLE6=Dave Dudley and Kathy O'Donnall - We Know It's Over
TTITLE7=Johnny Cash and Hank Williams Jr - That Old Wheel
TTITLE8=Tom T Hall and Patti Page - Hello We're Lonely
TTITLE9=Hank Williams Jnr and Lois Johnson - Someone To Give My Love To
TTITLE10=Jerry Lee Lewis and Linda Gail Lewis - We Live In Two Different Worlds
TTITLE11=Merle Haggard and Leona Williams - Let's Pretend We're Not Married Tonight
TTITLE12=Faron Young and Margie Singleton - Keeping Up With The Jones's
TTITLE13=Roy Drusky and Priscilla Mitchell - Yes Mr Peters
TTITLE14=Hank Williams Jr and Lois Johnson - Together Again
TTITLE15=Faron Young and Margie Singleton - Another Woman's Man, Another Man's Woman
TTITLE16=George Jones and Margie Singleton - When Two Worlds Collide
TTITLE17=Jerry Lee Lewis and Linda Gail Lewis - Jackson
EXTD=
EXTT0=
EXTT1=
EXTT2=
EXTT3=
EXTT4=
EXTT5=
EXTT6=
EXTT7=
EXTT8=
EXTT9=
EXTT10=
EXTT11=
EXTT12=
EXTT13=
EXTT14=
EXTT15=
EXTT16=
EXTT17=
PLAYORDER=
